# xmcd
#
# Track frame offsets:
#	150
#	17900
#	32412
#	48197
#	62879
#	77002
#	96263
#	111774
#	124685
#	139737
#	154333
#	167531
#
# Disc length: 2449 seconds
#
# Revision: 1
# Processed by: cddbd v1.4PL0 Copyright (c) Steve Scherf et al.
# Submitted via: audiograbber 1.81.03
#
DISCID=95098f0c
DTITLE=Scott Ainslie - You Better Lie Down
DYEAR=2002
DGENRE=Blues
TTITLE0=You Better Lie Down
TTITLE1=Don't Let The Devil Ride
TTITLE2=Big Fat Mama
TTITLE3=Pay Day
TTITLE4=I'll Be Rested
TTITLE5=Broken Levee Blue
TTITLE6=Phonograph Blues
TTITLE7=Losing Faith in You
TTITLE8=Bring It On Home To Me
TTITLE9=When You've Got A Good Friend
TTITLE10=I Will Trust In The Lord
TTITLE11=Wade IN The Water
EXTD=
EXTT0=
EXTT1=
EXTT2=
EXTT3=
EXTT4=
EXTT5=
EXTT6=
EXTT7=
EXTT8=
EXTT9=
EXTT10=
EXTT11=
PLAYORDER=
